<?xml version="1.0" encoding="utf-8"?>
<!-- Generator: Adobe Illustrator 17.1.0, SVG Export Plug-In . SVG Version: 6.00 Build 0)  -->
<!DOCTYPE svg PUBLIC "-//W3C//DTD SVG 1.1//EN" "http://www.w3.org/Graphics/SVG/1.1/DTD/svg11.dtd">
<svg version="1.1" id="Layer_1" xmlns="http://www.w3.org/2000/svg" xmlns:xlink="http://www.w3.org/1999/xlink" x="0px" y="0px"
	 viewBox="117.4 7.1 615.9 552.9" enable-background="new 117.4 7.1 615.9 552.9" xml:space="preserve">
<g id="Guides_For_Artboard">
</g>
<g id="Layer_1_1_">
	<g>
		<g>
			<g>
				<path fill="#969696" d="M425.4,94.3c-51.6-64.4-135.3-61-195.1-19.7c-25.1,15.7-46.6-16.9-23.5-32.7C270,0,359-8.8,425.4,41.9
					V94.3z"/>
				<path fill="#969696" d="M258,120c7.6-8.8,6.8-21.7-2-29.3c-8.8-7.6-21.7-6.8-29.3,2c-26.3,30.3-52.2,75.1-57.6,128.9
					c-4,40.7,3.6,85.9,31.9,133.3c6,10,18.7,13,28.5,7.4c0.8-0.6,1.8-1.2,2.6-1.8c6,14.7,13.4,29.7,22.5,44.8c6,10,18.9,13,28.5,6.8
					c10-6,13-18.9,6.8-28.5c-27.7-44.8-35.9-86.5-32.5-122.8c4.2-46.6,27.3-85.5,53.6-112.4c8-8.2,8-21.5-0.2-29.3
					c-8.2-8-21.5-8-29.3,0.2c-31.9,32.7-60.2,80.5-65.2,137.7c-0.8,9-1.2,18.7-0.8,28.3c-5.6-20.9-7-40.9-5.2-59.6
					C214.7,181.8,236.3,144.7,258,120L258,120z M344.1,195.5c-8.8,10.2-15.5,20.3-20.1,30.3c-7.4,16.7-9,33.1-5.4,48.6
					c3.6,15.5,13,30.3,27.9,43.2l-24.9,28.5c-20.9-18.3-34.1-39.9-39.9-63c-5.6-23.5-3.2-48,7.6-72.5c6-13.6,14.7-26.9,25.9-39.9
					c6.8-8,18.5-8.8,26.5-1.8C350.3,175.8,351.1,187.7,344.1,195.5z"/>
				<path fill="#969696" d="M425.4,560c-36.7-30.7-168.8-131.3-203.3-156.6c-72.5-53.6-120.4-135.5-100-228.4
					c8-35.7,23.7-67.8,41.3-89.5c16.7-20.9,49.6-1.8,37.1,21.5c-8,14.3-25.7,37.9-33.3,75.9c-21.7,106.6,64.6,150.3,79.9,142.3
					c27.7-14.1-5.6-104.8-48-148.9c18.9-10.4,46-29.9,77.3,26.9c32.1,58.4,31.1,64.2,81.9,103.2c39.5,30.5,67.6,71.1,67.6,136.3
					L425.4,560z"/>
			</g>
			<g>
				<path fill="#969696" d="M425.4,94.3c51.6-64.4,135.3-61,195.1-19.7c25.1,15.7,46.6-16.9,23.5-32.7C580.8,0,491.8-8.8,425.6,41.9
					v52.4H425.4z"/>
				<path fill="#969696" d="M592.8,120c-7.6-8.8-6.8-21.7,2-29.3c8.8-7.6,21.7-6.8,29.3,2c26.3,30.3,52.2,75.1,57.6,128.9
					c4,40.7-3.6,85.9-31.9,133.3c-6,10-18.7,13-28.5,7.4c-0.8-0.6-1.8-1.2-2.6-1.8c-6,14.7-13.4,29.7-22.5,44.8
					c-6,10-18.9,13-28.5,6.8c-10-6-13-18.9-6.8-28.5c27.7-44.8,35.9-86.5,32.5-122.8c-4.2-46.6-27.3-85.5-53.6-112.4
					c-8-8.2-8-21.5,0.2-29.3c8.2-8,21.5-8,29.3,0.2c31.9,32.7,60.2,80.5,65.2,137.7c0.8,9,1.2,18.7,0.8,28.3c5.6-20.9,7-40.9,5-59.6
					C636,181.8,614.5,144.7,592.8,120L592.8,120z M506.7,195.5c8.8,10.2,15.5,20.3,20.1,30.3c7.4,16.7,9,33.1,5.4,48.6
					c-3.6,15.5-13,30.3-27.9,43.2l24.9,28.5c20.9-18.3,34.1-39.9,39.9-63c5.6-23.5,3.2-48-7.6-72.5c-6-13.6-14.7-26.9-25.9-39.9
					c-6.8-8-18.7-8.8-26.5-1.8C500.5,175.8,499.7,187.7,506.7,195.5z"/>
				<path fill="#969696" d="M425.4,560c36.7-30.7,168.8-131.3,203.3-156.6C701.2,349.8,749,267.8,728.5,175
					c-8-35.7-23.7-67.8-41.3-89.5c-16.7-20.9-49.6-1.8-37.1,21.5c8,14.3,25.7,37.9,33.3,75.9c21.7,106.6-64.6,150.3-79.9,142.3
					c-27.7-14.1,5.6-104.8,48-148.9c-18.9-10.4-46-29.9-77.3,26.9c-32.1,58.4-31.1,64.2-81.9,103.2c-39.5,30.5-67.6,71.1-67.6,136.3
					L425.4,560z"/>
			</g>
		</g>
		<path fill="#969696" d="M424,222.4c9.4-18.3,18.3-27.7,37.1-27.7c20.3,0,37.1,16.7,37.1,37.1c0,37.1-37.1,73.7-73.7,110.6
			c-37.1-37.1-73.7-73.7-73.7-110.6c0-20.3,16.7-37.1,37.1-37.1C405.7,194.7,414.6,204.1,424,222.4z"/>
	</g>
</g>
</svg>
