<?xml version="1.0"?>
<svg xmlns="http://www.w3.org/2000/svg" xmlns:xlink="http://www.w3.org/1999/xlink" xmlns:svgjs="http://svgjs.com/svgjs" version="1.1" width="28" height="28" x="0" y="0" viewBox="0 0 464.997 464.997" style="enable-background:new 0 0 512 512" xml:space="preserve" class=""><g><g xmlns="http://www.w3.org/2000/svg"><path d="m422.07 37.327c-52.967-53.618-142.906-48.566-189.64 10.49-44-54.96-124.21-63.85-179.17-19.86-59.139 46.709-64.029 136.618-10.529 189.6-.001 0 29.419 29.43 29.419 29.43 13.332-4.201 28.782-1.643 39.9 6.71v-90.29c0-12.26 4.84-23.71 13.62-32.26 13.572-13.664 36.334-16.756 52.9-7.11 23.04-37.224 79.165-23.354 83.31 19.97 24.479-9.256 52.603 6.536 58.69 31.49 29.011-11.838 61.756 11.004 61.48 42.53v39.689l40.08-40.08c49.77-49.799 49.74-130.529-.06-180.309z" fill="#ffffff" data-original="#000000" style="" class=""/><path d="m337.49 202.407c-8.25-.419-15.603 6.768-15.44 15v58.59h-30v-88.97c0-13.558-15.795-20.754-25.46-11.38-2.92 2.85-4.54 6.67-4.54 10.76v89.59h-30v-127.97c.007-13.543-15.803-20.768-25.45-11.38-2.93 2.85-4.55 6.67-4.55 10.76v128.59h-30v-111.97c0-8.39-6.53-15.4-14.56-15.62-4.11-.11-7.97 1.4-10.89 4.24-2.93 2.85-4.55 6.67-4.55 10.76v161.99l-46-46.01c-5.592-5.813-15.628-5.815-21.22 0-5.813 5.593-5.815 15.627 0 21.22 0 0 67.22 67.22 67.22 67.22-3.102 52.236 38.363 97.363 90.96 97.17h28.08c50.16 0 90.96-40.8 90.96-90.96v-156.01c0-8.39-6.53-15.4-14.56-15.62z" fill="#ffffff" data-original="#000000" style="" class=""/></g></g></svg>
