<?xml version="1.0" encoding="utf-8"?>
<!-- Generator: Adobe Illustrator 17.1.0, SVG Export Plug-In . SVG Version: 6.00 Build 0)  -->
<!DOCTYPE svg PUBLIC "-//W3C//DTD SVG 1.1//EN" "http://www.w3.org/Graphics/SVG/1.1/DTD/svg11.dtd">
<svg version="1.1" id="Capa_1" xmlns="http://www.w3.org/2000/svg" xmlns:xlink="http://www.w3.org/1999/xlink" x="0px" y="0px"
	 viewBox="200 0 560 560" enable-background="new 200 0 560 560" xml:space="preserve">
<g>
	<g>
		<path fill="#FFFFFF" d="M481.1,0C327.3,0,200,125.1,200,278.9S327.3,560,481.1,560S760,432.7,760,278.9S634.9,0,481.1,0z
			 M628.8,311.7H513.9v117c0,18.1-14.7,32.8-32.8,32.8c-18.1,0-32.8-14.7-32.8-32.8v-117h-117c-18.1,0-32.8-14.7-32.8-32.8
			s14.7-32.8,32.8-32.8h117V131.3c0-18.1,14.7-32.8,32.8-32.8c18.1,0,32.8,14.7,32.8,32.8v114.8h114.8c18.1,0,32.8,14.7,32.8,32.8
			S646.8,311.7,628.8,311.7z"/>
	</g>
</g>
</svg>
