<?xml version="1.0" encoding="utf-8"?>
<!-- Generator: Adobe Illustrator 17.1.0, SVG Export Plug-In . SVG Version: 6.00 Build 0)  -->
<!DOCTYPE svg PUBLIC "-//W3C//DTD SVG 1.1//EN" "http://www.w3.org/Graphics/SVG/1.1/DTD/svg11.dtd">
<svg version="1.1" id="Layer_1" xmlns="http://www.w3.org/2000/svg" xmlns:xlink="http://www.w3.org/1999/xlink" x="0px" y="0px"
	 viewBox="0 0 464 464" enable-background="new 0 0 464 464" xml:space="preserve">
<linearGradient id="SVGID_1_" gradientUnits="userSpaceOnUse" x1="246.7569" y1="69.2294" x2="42.7064" y2="212.1071">
	<stop  offset="0" style="stop-color:#067CA0"/>
	<stop  offset="1" style="stop-color:#79D5E4"/>
</linearGradient>
<path fill="url(#SVGID_1_)" d="M72.2,237.6c17.6,11.1,37.6,23.7,56,37.8c11.2,8.6,19.8,19.8,25.2,32.3c12.8-30,33.7-57.8,61.2-81.2
	c26-22.1,41.5-55.9,41.5-90.5v-15.9C256,60.2,211.2,9,151.9,1.1L143.5,0h-14.9l-8.4,1.1C60.8,9,16,60.2,16,120.1V136
	C16,177.5,37,215.5,72.2,237.6z M136,32c57.3,0,104,46.7,104,104s-46.7,104-104,104S32,193.3,32,136S78.7,32,136,32z"/>
<linearGradient id="SVGID_2_" gradientUnits="userSpaceOnUse" x1="256.0857" y1="230.6375" x2="20.2735" y2="395.755">
	<stop  offset="0" style="stop-color:#067CA0"/>
	<stop  offset="1" style="stop-color:#79D5E4"/>
</linearGradient>
<path fill="url(#SVGID_2_)" d="M208,330c0-35.5,25.1-65.2,58.5-72.4c-4.4-14.9-11.5-29.1-20.7-41.7c-6.1,8.3-13,16-20.9,22.7
	c-31.1,26.5-53,58.8-63.4,93.4l-1.6,5.4c0,0.6,0,1.2,0,1.8c0,30.6-17,58.2-44.4,71.9l-24,12l-7.2-14.3l24-12
	c21.9-11,35.5-33,35.5-57.5c0-19.8-9.4-38.8-25.1-50.9c-18.2-13.9-37.8-26.3-55.2-37.3c-14.9-9.4-27.6-21.3-37.6-35
	C9.2,239.4,0,267.3,0,296v28.2c0,59.9,40.2,113.6,97.6,130.5l25,7.3c8.7,2.6,18.1,2.6,26.8,0l25-7.3c30.8-9.1,57-28.6,74.7-55.2
	l-15.8-13.8C217.2,371.7,208,351.4,208,330z"/>
<linearGradient id="SVGID_3_" gradientUnits="userSpaceOnUse" x1="208.0717" y1="85.5732" x2="63.9566" y2="186.4837">
	<stop  offset="0" style="stop-color:#067CA0"/>
	<stop  offset="1" style="stop-color:#79D5E4"/>
</linearGradient>
<path fill="url(#SVGID_3_)" d="M136,224c48.5,0,88-39.5,88-88c0-45.7-35.1-83.4-79.7-87.6l4.5,6C156,64,160,76,160,88
	c0,13.2-10.8,24-24,24s-24-10.8-24-24v-8h16v8c0,4.4,3.6,8,8,8s8-3.6,8-8c0-8.6-2.8-17.1-8-24l-11.4-15.2C81.5,54.4,48,91.3,48,136
	C48,184.5,87.5,224,136,224z M192,112c4.4,0,8,3.6,8,8s-3.6,8-8,8s-8-3.6-8-8S187.6,112,192,112z M120,168c0,8.8,7.2,16,16,16
	s16-7.2,16-16h16c0,17.6-14.4,32-32,32s-32-14.4-32-32H120z M80,112c4.4,0,8,3.6,8,8s-3.6,8-8,8s-8-3.6-8-8S75.6,112,80,112z"/>
<linearGradient id="SVGID_4_" gradientUnits="userSpaceOnUse" x1="437.123" y1="273.3913" x2="258.8989" y2="398.1852">
	<stop  offset="0" style="stop-color:#067CA0"/>
	<stop  offset="1" style="stop-color:#79D5E4"/>
</linearGradient>
<path fill="url(#SVGID_4_)" d="M406,272h-2.6c-15.5,0-30.1,6-41,17L344,307.3L325.7,289c-11-11-25.5-17-41-17H282c-32,0-58,26-58,58
	c0,16.7,7.2,32.7,19.8,43.7L344,461.4l100.2-87.7c12.6-11,19.8-26.9,19.8-43.7C464,298,438,272,406,272z M433.7,361.7l-68.4,59.8
	l-10.5-12l68.4-59.8c5.6-4.9,8.9-12.1,8.9-19.6c0-14.4-11.7-26-26-26h-2.6c-0.9,0-1.7,0-2.6,0.1l-1.6-15.9c1.4-0.1,2.7-0.2,4.1-0.2
	h2.6c23.2,0,42,18.9,42,42C448,342.2,442.8,353.7,433.7,361.7z"/>
<linearGradient id="SVGID_5_" gradientUnits="userSpaceOnUse" x1="449.1269" y1="89.6093" x2="430.8731" y2="102.3907">
	<stop  offset="0" style="stop-color:#067CA0"/>
	<stop  offset="1" style="stop-color:#79D5E4"/>
</linearGradient>
<path fill="url(#SVGID_5_)" d="M432,88h16v16h-16V88z"/>
<linearGradient id="SVGID_6_" gradientUnits="userSpaceOnUse" x1="449.1269" y1="121.6093" x2="430.8731" y2="134.3907">
	<stop  offset="0" style="stop-color:#067CA0"/>
	<stop  offset="1" style="stop-color:#79D5E4"/>
</linearGradient>
<path fill="url(#SVGID_6_)" d="M432,120h16v16h-16V120z"/>
<linearGradient id="SVGID_7_" gradientUnits="userSpaceOnUse" x1="433.1269" y1="105.6093" x2="414.8731" y2="118.3907">
	<stop  offset="0" style="stop-color:#067CA0"/>
	<stop  offset="1" style="stop-color:#79D5E4"/>
</linearGradient>
<path fill="url(#SVGID_7_)" d="M416,104h16v16h-16V104z"/>
<linearGradient id="SVGID_8_" gradientUnits="userSpaceOnUse" x1="465.1269" y1="105.6093" x2="446.8731" y2="118.3907">
	<stop  offset="0" style="stop-color:#067CA0"/>
	<stop  offset="1" style="stop-color:#79D5E4"/>
</linearGradient>
<path fill="url(#SVGID_8_)" d="M448,104h16v16h-16V104z"/>
<linearGradient id="SVGID_9_" gradientUnits="userSpaceOnUse" x1="377.1269" y1="169.6093" x2="358.8731" y2="182.3907">
	<stop  offset="0" style="stop-color:#067CA0"/>
	<stop  offset="1" style="stop-color:#79D5E4"/>
</linearGradient>
<path fill="url(#SVGID_9_)" d="M360,168h16v16h-16V168z"/>
<linearGradient id="SVGID_10_" gradientUnits="userSpaceOnUse" x1="377.1269" y1="201.6093" x2="358.8731" y2="214.3907">
	<stop  offset="0" style="stop-color:#067CA0"/>
	<stop  offset="1" style="stop-color:#79D5E4"/>
</linearGradient>
<path fill="url(#SVGID_10_)" d="M360,200h16v16h-16V200z"/>
<linearGradient id="SVGID_11_" gradientUnits="userSpaceOnUse" x1="361.1269" y1="185.6093" x2="342.8731" y2="198.3907">
	<stop  offset="0" style="stop-color:#067CA0"/>
	<stop  offset="1" style="stop-color:#79D5E4"/>
</linearGradient>
<path fill="url(#SVGID_11_)" d="M344,184h16v16h-16V184z"/>
<linearGradient id="SVGID_12_" gradientUnits="userSpaceOnUse" x1="393.1269" y1="185.6093" x2="374.8731" y2="198.3907">
	<stop  offset="0" style="stop-color:#067CA0"/>
	<stop  offset="1" style="stop-color:#79D5E4"/>
</linearGradient>
<path fill="url(#SVGID_12_)" d="M376,184h16v16h-16V184z"/>
<linearGradient id="SVGID_13_" gradientUnits="userSpaceOnUse" x1="337.1269" y1="1.6093" x2="318.8731" y2="14.3907">
	<stop  offset="0" style="stop-color:#067CA0"/>
	<stop  offset="1" style="stop-color:#79D5E4"/>
</linearGradient>
<path fill="url(#SVGID_13_)" d="M320,0h16v16h-16V0z"/>
<linearGradient id="SVGID_14_" gradientUnits="userSpaceOnUse" x1="337.1269" y1="33.6093" x2="318.8731" y2="46.3907">
	<stop  offset="0" style="stop-color:#067CA0"/>
	<stop  offset="1" style="stop-color:#79D5E4"/>
</linearGradient>
<path fill="url(#SVGID_14_)" d="M320,32h16v16h-16V32z"/>
<linearGradient id="SVGID_15_" gradientUnits="userSpaceOnUse" x1="321.1269" y1="17.6093" x2="302.8731" y2="30.3907">
	<stop  offset="0" style="stop-color:#067CA0"/>
	<stop  offset="1" style="stop-color:#79D5E4"/>
</linearGradient>
<path fill="url(#SVGID_15_)" d="M304,16h16v16h-16V16z"/>
<linearGradient id="SVGID_16_" gradientUnits="userSpaceOnUse" x1="353.1269" y1="17.6093" x2="334.8731" y2="30.3907">
	<stop  offset="0" style="stop-color:#067CA0"/>
	<stop  offset="1" style="stop-color:#79D5E4"/>
</linearGradient>
<path fill="url(#SVGID_16_)" d="M336,16h16v16h-16V16z"/>
</svg>
