<?xml version="1.0" encoding="utf-8"?>
<!-- Generator: Adobe Illustrator 17.1.0, SVG Export Plug-In . SVG Version: 6.00 Build 0)  -->
<!DOCTYPE svg PUBLIC "-//W3C//DTD SVG 1.1//EN" "http://www.w3.org/Graphics/SVG/1.1/DTD/svg11.dtd">
<svg version="1.1" id="Capa_1" xmlns="http://www.w3.org/2000/svg" xmlns:xlink="http://www.w3.org/1999/xlink" x="0px" y="0px"
	 viewBox="264.9 0 590.1 560" enable-background="new 264.9 0 590.1 560" xml:space="preserve">
<g>
	
		<linearGradient id="SVGID_1_" gradientUnits="userSpaceOnUse" x1="231.6747" y1="465.1072" x2="207.1148" y2="447.9102" gradientTransform="matrix(1.0938 0 0 -1.0938 231 612.5)">
		<stop  offset="0" style="stop-color:#067CA0"/>
		<stop  offset="1" style="stop-color:#79D5E4"/>
	</linearGradient>
	<path fill="url(#SVGID_1_)" d="M462.8,127.4c7.8,4.5,17.8,1.9,22.4-6l0,0c4.5-7.8,1.9-17.8-6-22.4c-8.1-4.6-18-1.6-22.4,6
		C452.3,112.9,455,122.9,462.8,127.4L462.8,127.4z"/>
	
		<linearGradient id="SVGID_2_" gradientUnits="userSpaceOnUse" x1="302.1681" y1="512.9432" x2="136.71" y2="397.0881" gradientTransform="matrix(1.0938 0 0 -1.0938 231 612.5)">
		<stop  offset="0" style="stop-color:#067CA0"/>
		<stop  offset="1" style="stop-color:#79D5E4"/>
	</linearGradient>
	<path fill="url(#SVGID_2_)" d="M537.7,227.5c7.9,4.5,17.8,1.9,22.4-6l49.2-85.2c4.5-7.9,1.9-17.8-6-22.4L404.4,2.2
		c-7.9-4.6-17.9-1.9-22.4,6l-49.2,85.2c-4.5,7.9-1.9,17.8,6,22.4L537.7,227.5z M428.4,88.6c13.7-23.6,43.8-31.6,67.3-18
		c23.4,13.6,31.6,43.6,18,67.3l0,0c-13.6,23.5-43.8,31.6-67.3,18C422.8,142.3,414.9,112.1,428.4,88.6L428.4,88.6z"/>
	<g>
		
			<linearGradient id="SVGID_3_" gradientUnits="userSpaceOnUse" x1="301.9701" y1="241.5419" x2="214.2901" y2="180.1476" gradientTransform="matrix(1.0938 0 0 -1.0938 231 612.5)">
			<stop  offset="0" style="stop-color:#067CA0"/>
			<stop  offset="1" style="stop-color:#79D5E4"/>
		</linearGradient>
		<path fill="url(#SVGID_3_)" d="M552,353.8c-17.8,0-24.5,18.7-25.3,21.2c-2,7-8.4,11.9-15.8,11.9s-13.7-4.8-15.8-11.9
			c-0.8-2.5-7.4-21.2-25.3-21.2c-16.2,0-24.6,12.5-24.6,24.7c0,17.3,18.7,32.6,54.5,60.5c3.6,2.8,7.3,5.8,11.2,8.8
			c3.8-3.1,7.5-5.9,11.2-8.8c35.8-27.9,54.5-43.2,54.5-60.5C576.6,366.3,568.2,353.8,552,353.8z"/>
		
			<linearGradient id="SVGID_4_" gradientUnits="userSpaceOnUse" x1="494.2487" y1="410.8236" x2="17.7512" y2="77.1764" gradientTransform="matrix(1.0938 0 0 -1.0938 231 612.5)">
			<stop  offset="0" style="stop-color:#067CA0"/>
			<stop  offset="1" style="stop-color:#79D5E4"/>
		</linearGradient>
		<path fill="url(#SVGID_4_)" d="M740.7,131.3H644c-0.4,7.4-2.5,14.8-6.3,21.4l-44.4,77h49c9.1,0,16.4,7.3,16.4,16.4
			s-7.3,16.4-16.4,16.4H379.8c-9.1,0-16.4-7.3-16.4-16.4s7.3-16.4,16.4-16.4h94.8l-151.9-85.2c-6-3.5-11-8-15-13.2h-26.4
			c-9.1,0-16.4,7.3-16.4,16.4v395.9c0,9.1,7.3,16.4,16.4,16.4h459.4c9.1,0,16.4-7.3,16.4-16.4V147.7
			C757.1,138.6,749.8,131.3,740.7,131.3z M542.4,464.8c-6.8,5.3-13.7,10.7-21.1,16.6c-3,2.4-6.7,3.6-10.3,3.6s-7.2-1.2-10.3-3.6
			c-7.4-5.9-14.3-11.4-21.1-16.6c-38.9-30.3-67-52.3-67-86.4c0-32.3,25.3-57.5,57.4-57.5c16,0,30,6.1,41,17.9
			c11-11.7,25-17.9,41-17.9c32.2,0,57.4,25.3,57.4,57.5C609.4,412.7,581.3,434.5,542.4,464.8z"/>
	</g>
</g>
<linearGradient id="SVGID_5_" gradientUnits="userSpaceOnUse" x1="407.9554" y1="554.7906" x2="389.7017" y2="542.0093" gradientTransform="matrix(1.2069 0 0 -1.2069 200 675.8621)">
	<stop  offset="0" style="stop-color:#067CA0"/>
	<stop  offset="1" style="stop-color:#79D5E4"/>
</linearGradient>
<path fill="url(#SVGID_5_)" d="M671.7,4.3H691v19.3h-19.3V4.3z"/>
<linearGradient id="SVGID_6_" gradientUnits="userSpaceOnUse" x1="407.9554" y1="522.7906" x2="389.7017" y2="510.0093" gradientTransform="matrix(1.2069 0 0 -1.2069 200 675.8621)">
	<stop  offset="0" style="stop-color:#067CA0"/>
	<stop  offset="1" style="stop-color:#79D5E4"/>
</linearGradient>
<path fill="url(#SVGID_6_)" d="M671.7,43H691v19.3h-19.3V43z"/>
<linearGradient id="SVGID_7_" gradientUnits="userSpaceOnUse" x1="391.9554" y1="538.7906" x2="373.7017" y2="526.0093" gradientTransform="matrix(1.2069 0 0 -1.2069 200 675.8621)">
	<stop  offset="0" style="stop-color:#067CA0"/>
	<stop  offset="1" style="stop-color:#79D5E4"/>
</linearGradient>
<path fill="url(#SVGID_7_)" d="M652.4,23.7h19.3V43h-19.3V23.7z"/>
<linearGradient id="SVGID_8_" gradientUnits="userSpaceOnUse" x1="423.9554" y1="538.7906" x2="405.7017" y2="526.0093" gradientTransform="matrix(1.2069 0 0 -1.2069 200 675.8621)">
	<stop  offset="0" style="stop-color:#067CA0"/>
	<stop  offset="1" style="stop-color:#79D5E4"/>
</linearGradient>
<path fill="url(#SVGID_8_)" d="M691,23.7h19.3V43H691V23.7z"/>
<linearGradient id="SVGID_9_" gradientUnits="userSpaceOnUse" x1="527.8126" y1="473.6407" x2="509.5589" y2="460.8593" gradientTransform="matrix(1.2069 0 0 -1.2069 200 675.8621)">
	<stop  offset="0" style="stop-color:#067CA0"/>
	<stop  offset="1" style="stop-color:#79D5E4"/>
</linearGradient>
<path fill="url(#SVGID_9_)" d="M816.3,102.3h19.3v19.3h-19.3V102.3z"/>
<linearGradient id="SVGID_10_" gradientUnits="userSpaceOnUse" x1="527.8126" y1="441.6407" x2="509.5589" y2="428.8593" gradientTransform="matrix(1.2069 0 0 -1.2069 200 675.8621)">
	<stop  offset="0" style="stop-color:#067CA0"/>
	<stop  offset="1" style="stop-color:#79D5E4"/>
</linearGradient>
<path fill="url(#SVGID_10_)" d="M816.3,140.9h19.3v19.3h-19.3V140.9z"/>
<linearGradient id="SVGID_11_" gradientUnits="userSpaceOnUse" x1="511.8126" y1="457.6407" x2="493.5589" y2="444.8593" gradientTransform="matrix(1.2069 0 0 -1.2069 200 675.8621)">
	<stop  offset="0" style="stop-color:#067CA0"/>
	<stop  offset="1" style="stop-color:#79D5E4"/>
</linearGradient>
<path fill="url(#SVGID_11_)" d="M797,121.6h19.3v19.3H797V121.6z"/>
<linearGradient id="SVGID_12_" gradientUnits="userSpaceOnUse" x1="543.8126" y1="457.6407" x2="525.5588" y2="444.8593" gradientTransform="matrix(1.2069 0 0 -1.2069 200 675.8621)">
	<stop  offset="0" style="stop-color:#067CA0"/>
	<stop  offset="1" style="stop-color:#79D5E4"/>
</linearGradient>
<path fill="url(#SVGID_12_)" d="M835.7,121.6H855v19.3h-19.3V121.6z"/>
</svg>
